<?xml version="1.0" encoding="UTF-8" standalone="no"?>
<!DOCTYPE svg PUBLIC "-//W3C//DTD SVG 1.1//EN" "http://www.w3.org/Graphics/SVG/1.1/DTD/svg11.dtd">
<svg width="100%" height="100%" viewBox="0 0 2500 2389" version="1.1" xmlns="http://www.w3.org/2000/svg" xmlns:xlink="http://www.w3.org/1999/xlink" xml:space="preserve" xmlns:serif="http://www.serif.com/" style="fill-rule:evenodd;clip-rule:evenodd;stroke-linejoin:round;stroke-miterlimit:2;">
    <path d="M0,277.512C0,197.072 28.154,130.711 84.459,78.429C140.765,26.143 213.965,0.002 304.054,0.002C392.536,0.002 464.124,25.74 518.822,77.222C575.128,130.311 603.282,199.486 603.282,284.751C603.282,361.971 575.934,426.319 521.236,477.801C464.93,530.89 390.927,557.434 299.228,557.434L296.815,557.434C208.333,557.434 136.745,530.89 82.046,477.801C27.348,424.712 0,357.948 0,277.512ZM31.371,2389L31.371,777.029L567.085,777.029L567.085,2389L31.371,2389ZM863.9,2389L1399.61,2389L1399.61,1488.9C1399.61,1432.59 1406.05,1389.16 1418.92,1358.59C1441.44,1303.89 1475.63,1257.64 1521.48,1219.84C1567.33,1182.03 1624.84,1163.13 1694.02,1163.13C1874.2,1163.13 1964.29,1284.59 1964.29,1527.51L1964.29,2389L2500,2389L2500,1464.77C2500,1226.67 2443.69,1046.09 2331.08,923.023C2218.47,799.954 2069.66,738.419 1884.65,738.419C1677.12,738.419 1515.44,827.705 1399.61,1006.28L1399.61,1011.1L1397.2,1011.1L1399.61,1006.28L1399.61,777.029L863.9,777.029C867.116,828.508 868.726,988.578 868.726,1257.24C868.726,1525.9 867.116,1903.15 863.9,2389Z" style="fill:white;fill-rule:nonzero;"/>
</svg>
