<?xml version="1.0" encoding="UTF-8" standalone="no"?>
<!DOCTYPE svg PUBLIC "-//W3C//DTD SVG 1.1//EN" "http://www.w3.org/Graphics/SVG/1.1/DTD/svg11.dtd">
<svg width="100%" height="100%" viewBox="0 0 2500 1982" version="1.1" xmlns="http://www.w3.org/2000/svg" xmlns:xlink="http://www.w3.org/1999/xlink" xml:space="preserve" xmlns:serif="http://www.serif.com/" style="fill-rule:evenodd;clip-rule:evenodd;stroke-linejoin:round;stroke-miterlimit:2;">
    <path d="M2499.73,291.608L2400.88,291.608C2364.18,291.608 2312.27,344.556 2312.27,378.445L2312.27,1606.95C2312.27,1640.88 2364.18,1687.14 2400.88,1687.14L2499.73,1687.14L2499.73,1978.75L1604.1,1978.75L1604.1,1687.14L1791.56,1687.14L1791.56,395.746L1782.37,395.746L1344.61,1978.75L1005.7,1978.75L573.581,395.746L562.646,395.746L562.646,1687.14L750.106,1687.14L750.106,1978.75L0.266,1978.75L0.266,1687.14L96.29,1687.14C135.823,1687.14 187.726,1640.88 187.726,1606.95L187.726,378.435C187.726,344.546 135.823,291.598 96.29,291.598L0.266,291.598L0.266,0L937.898,0L1245.74,1145.59L1254.24,1145.59L1564.9,0L2499.73,0L2499.73,291.608" style="fill:white;fill-rule:nonzero;"/>
</svg>
